<?xml version="1.0" encoding="UTF-8"?>
<svg id="_图层_2" data-name="图层 2" xmlns="http://www.w3.org/2000/svg" viewBox="0 0 906.37 907.08">
  <defs>
    <style>
      .cls-1 {
        fill: #fdcf30;
      }
    </style>
  </defs>
  <g id="_黄色党徽" data-name="黄色党徽">
    <path id="_完成的党徽" data-name="完成的党徽" class="cls-1" d="m840.85,728.18l65.52,65.52-113.38,113.38-81.17-81.17c-34.46,24.02-72.41,43.37-112.94,57.14-44.38,15.09-91.85,23.49-141.22,24.01-1.6.01-3.22.02-4.83.02-2.37,0-4.73-.02-7.1-.05-2.36-.04-4.71-.1-7.07-.18v.03c-23.05-.62-45.73-2.78-67.92-6.37-80.35-12.99-154.41-44.75-217.54-90.64l-13.98,13.98c.72,4.02,1.09,8.15,1.09,12.37,0,17.12-6.13,32.81-16.33,44.99-12.87,15.38-32.21,25.16-53.83,25.16-19.37,0-36.91-7.85-49.6-20.55-12.7-12.69-20.55-30.23-20.55-49.6,0-6.95,1.01-13.66,2.89-19.99,8.61-29.01,35.47-50.17,67.26-50.17,4.22,0,8.35.37,12.37,1.09l9.52-9.51c-23.75-23.75-45.16-49.82-63.87-77.86l20.41-20.41,51.17-51.17c32.68,34.1,70.47,63.28,112.12,86.3,66.12,36.57,142,57.64,222.74,58.31,1.35.02,2.7.03,4.05.03s2.7-.01,4.05-.03c8.3-.1,16.53-.53,24.66-1.27,46.68-4.24,90.41-18.71,128.92-41.16l-157.63-157.63-42.52-42.52-99.21-99.21-28.35,28.35-56.69,56.69-127.56-127.56,78.86-78.86,125.74-125.74,19.91-19.91c4.78,1.48,9.66,2.74,14.64,3.75,9.74,1.97,19.82,3.01,30.14,3.01,30.63,0,59.14-9.14,82.93-24.84.71-.48,1.41-.95,2.11-1.43,4.96-3.4,9.72-7.09,14.23-11.04l13.67,13.67,57.14,57.14-85.04,85.04-28.35,28.35,28.35,28.35,70.86,70.86,42.52,42.52,157.63,157.63c26.36-45.22,41.73-97.63,42.43-153.58.02-1.35.03-2.7.03-4.05s-.01-2.7-.03-4.05c-.05-7.86-.31-15.67-.77-23.43-4.15-71.99-24.53-139.63-57.54-199.31-23.02-41.65-52.2-79.44-86.3-112.12-31.22-29.92-66.56-55.57-105.09-76.01-16.39-8.69-33.36-16.45-50.84-23.18l1.27-1.27c17.42,0,34.61.98,51.51,2.9,55.03,6.21,107.07,22.28,154.32,46.39,42.63,21.75,81.36,50.04,114.87,83.55,64.23,64.22,109.28,147.61,125.83,240.86,3.81,21.41,6.11,43.33,6.78,65.67.16,4.71.23,9.43.23,14.17,0,35.04-3.97,69.15-11.49,101.9-13.15,57.26-37.13,110.38-69.68,157.09l15.65,15.65Z"/>
  </g>
</svg>