<?xml version="1.0" encoding="UTF-8"?>
<svg id="_图层_2" data-name="图层 2" xmlns="http://www.w3.org/2000/svg" viewBox="0 0 1700.79 1133.86">
  <defs>
    <style>
      .cls-1 {
        fill: #ee1c25;
      }

      .cls-2 {
        fill: #ff0;
        stroke: #000;
        stroke-miterlimit: 10;
        stroke-width: .25px;
      }
    </style>
  </defs>
  <g id="_红色党徽" data-name="红色党徽">
    <rect class="cls-1" width="850.39" height="566.93"/>
    <rect class="cls-1" y="566.93" width="850.39" height="566.93"/>
    <rect class="cls-1" x="850.39" width="850.39" height="566.93"/>
    <rect class="cls-1" x="850.39" y="566.93" width="850.39" height="566.93"/>
    <path id="_完成的党徽" data-name="完成的党徽" class="cls-2" d="m539.63,445.14l27.3,27.3-47.24,47.24-33.82-33.82c-14.36,10.01-30.17,18.07-47.06,23.81-18.49,6.29-38.27,9.79-58.84,10-.67,0-1.34,0-2.01,0-.99,0-1.97,0-2.96-.02-.98-.02-1.96-.04-2.95-.07h0c-9.6-.25-19.05-1.15-28.3-2.64-33.48-5.41-64.34-18.65-90.64-37.77l-5.82,5.82c.3,1.67.45,3.4.45,5.15,0,7.13-2.55,13.67-6.8,18.75-5.36,6.41-13.42,10.48-22.43,10.48-8.07,0-15.38-3.27-20.67-8.56-5.29-5.29-8.56-12.6-8.56-20.67,0-2.9.42-5.69,1.2-8.33,3.59-12.09,14.78-20.9,28.02-20.9,1.76,0,3.48.15,5.15.45l3.97-3.96c-9.9-9.9-18.82-20.76-26.61-32.44l8.5-8.5,21.32-21.32c13.62,14.21,29.36,26.37,46.72,35.96,27.55,15.24,59.17,24.02,92.81,24.3.56,0,1.12.01,1.69.01s1.12,0,1.69-.01c3.46-.04,6.89-.22,10.27-.53,19.45-1.77,37.67-7.8,53.72-17.15l-65.68-65.68-17.72-17.72-41.34-41.34-11.81,11.81-23.62,23.62-53.15-53.15,32.86-32.86,52.39-52.39,8.3-8.3c1.99.62,4.02,1.14,6.1,1.56,4.06.82,8.26,1.25,12.56,1.25,12.76,0,24.64-3.81,34.55-10.35.3-.2.59-.4.88-.6,2.07-1.42,4.05-2.95,5.93-4.6l5.7,5.7,23.81,23.81-35.43,35.43-11.81,11.81,11.81,11.81,29.52,29.52,17.72,17.72,65.68,65.68c10.98-18.84,17.39-40.68,17.68-63.99,0-.56.01-1.12.01-1.69s0-1.12-.01-1.69c-.02-3.27-.13-6.53-.32-9.76-1.73-30-10.22-58.18-23.97-83.04-9.59-17.35-21.75-33.1-35.96-46.72-13.01-12.47-27.73-23.15-43.79-31.67-6.83-3.62-13.9-6.85-21.18-9.66l.53-.53c7.26,0,14.42.41,21.46,1.21,22.93,2.59,44.61,9.28,64.3,19.33,17.76,9.06,33.9,20.85,47.86,34.81,26.76,26.76,45.53,61.5,52.43,100.36,1.59,8.92,2.55,18.05,2.82,27.36.07,1.96.1,3.93.1,5.9,0,14.6-1.65,28.81-4.79,42.46-5.48,23.86-15.47,45.99-29.03,65.45l6.52,6.52Z"/>
  </g>
</svg>